<svg xmlns="http://www.w3.org/2000/svg" width="1280" height="640" viewBox="0 0 1280 640" role="img" aria-label="Architext social preview">
  <defs>
    <linearGradient id="bg" x1="0" y1="0" x2="1280" y2="640" gradientUnits="userSpaceOnUse">
      <stop stop-color="#06101C"/>
      <stop offset="0.55" stop-color="#0A1C2D"/>
      <stop offset="1" stop-color="#151326"/>
    </linearGradient>
    <linearGradient id="accent" x1="130" y1="88" x2="1140" y2="560" gradientUnits="userSpaceOnUse">
      <stop stop-color="#6EEBFF"/>
      <stop offset="0.5" stop-color="#5BE8B8"/>
      <stop offset="1" stop-color="#B983FF"/>
    </linearGradient>
    <filter id="glow" x="-30%" y="-30%" width="160%" height="160%">
      <feGaussianBlur stdDeviation="14" result="blur"/>
      <feColorMatrix in="blur" type="matrix" values="0 0 0 0 0.38 0 0 0 0 0.93 0 0 0 0 1 0 0 0 0.45 0"/>
      <feBlend in="SourceGraphic"/>
    </filter>
    <filter id="card-shadow" x="-20%" y="-20%" width="140%" height="140%">
      <feDropShadow dx="0" dy="22" stdDeviation="34" flood-color="#000611" flood-opacity="0.62"/>
    </filter>
  </defs>

  <rect width="1280" height="640" fill="url(#bg)"/>
  <path d="M0 118h1280M0 320h1280M0 522h1280M168 0v640M370 0v640M572 0v640M774 0v640M976 0v640M1178 0v640" stroke="#17324B" stroke-width="2"/>
  <path d="M82 86h1116v468H82z" fill="#091725" stroke="#244A67" stroke-width="2"/>
  <path d="M82 86h1116v54H82z" fill="#0D2234"/>
  <circle cx="114" cy="113" r="7" fill="#FF6D7A"/>
  <circle cx="138" cy="113" r="7" fill="#F6C85F"/>
  <circle cx="162" cy="113" r="7" fill="#5BE8B8"/>

  <g transform="translate(128 166)">
    <text x="0" y="0" font-family="monospace" font-size="24" font-weight="700" fill="#6EEBFF">ARCHiTEXT</text>
    <text x="0" y="42" font-family="monospace" font-size="18" fill="#8392A5">knowledge graph extraction console</text>
    <text x="0" y="88" font-family="monospace" font-size="18" fill="#8392A5">query:</text>
    <text x="74" y="88" font-family="monospace" font-size="18" fill="#F6C85F">tag:#project/active</text>
    <text x="0" y="122" font-family="monospace" font-size="18" fill="#8392A5">results:</text>
    <text x="96" y="122" font-family="monospace" font-size="18" fill="#DDE7EF">18</text>
    <text x="148" y="122" font-family="monospace" font-size="18" fill="#8392A5">selected:</text>
    <text x="260" y="122" font-family="monospace" font-size="18" fill="#5BE8B8">5</text>
  </g>

  <g transform="translate(128 328)" filter="url(#card-shadow)">
    <rect width="662" height="164" rx="14" fill="#07111F" stroke="#31617C" stroke-width="2"/>
    <text x="28" y="44" font-family="monospace" font-size="20" fill="#5BE8B8">▶ ● Game Ideas/MALFUNCTION.md</text>
    <text x="28" y="82" font-family="monospace" font-size="20" fill="#DDE7EF">  ○ Rails Learning/Context.md</text>
    <text x="28" y="120" font-family="monospace" font-size="20" fill="#5BE8B8">  ● Projects/Zombie Parkour.md</text>
  </g>

  <g transform="translate(850 159)" filter="url(#glow)">
    <path d="M0 286 160 0l160 286h-66l-30-54H96l-30 54H0Z" fill="#6EEBFF"/>
    <path d="M160 96 119 175h82L160 96Z" fill="#0D2031" stroke="#F6C85F" stroke-width="14" stroke-linejoin="round"/>
    <path d="M50 287h220" stroke="#6EEBFF" stroke-width="18" stroke-linecap="round"/>
    <path d="M63 239 18 196l45-43" fill="none" stroke="#5BE8B8" stroke-width="19" stroke-linecap="round" stroke-linejoin="round"/>
    <path d="M257 239h52" stroke="#B983FF" stroke-width="19" stroke-linecap="round"/>
  </g>

  <text x="128" y="576" font-family="monospace" font-size="21" fill="#8392A5">Architect Obsidian context and stitch for agent work.</text>
  <text x="944" y="576" font-family="monospace" font-size="21" fill="#6EEBFF">architext</text>
</svg>
